<svg viewBox="0 0 32 32" width="32" height="32" xmlns="http://www.w3.org/2000/svg">
  <rect width="32" height="32" fill="#D4614A"/>
  <!-- NW petal — seafoam -->
  <path d="M16 16 L3 3 C5 9 10 13 16 16Z" fill="#5AADA8"/>
  <path d="M16 16 L3 3 C9 5 13 10 16 16Z" fill="#5AADA8" opacity="0.55"/>
  <!-- NE petal — navy -->
  <path d="M16 16 L29 3 C27 9 22 13 16 16Z" fill="#2B5278"/>
  <path d="M16 16 L29 3 C23 5 19 10 16 16Z" fill="#2B5278" opacity="0.55"/>
  <!-- SE petal — seafoam -->
  <path d="M16 16 L29 29 C27 23 22 19 16 16Z" fill="#5AADA8"/>
  <path d="M16 16 L29 29 C23 27 19 22 16 16Z" fill="#5AADA8" opacity="0.55"/>
  <!-- SW petal — navy -->
  <path d="M16 16 L3 29 C5 23 10 19 16 16Z" fill="#2B5278"/>
  <path d="M16 16 L3 29 C9 27 13 22 16 16Z" fill="#2B5278" opacity="0.55"/>
  <!-- Center -->
  <circle cx="16" cy="16" r="4.5" fill="#D4614A"/>
  <circle cx="16" cy="16" r="2" fill="#1A3A58"/>
</svg>
